Check out the new Kite-Village 2010 Video! Filmed in Hamata / Egypt ... In which quite a few of our Flysurfer teamriders are also appearing!
Riders: Michael Schitzhofer, Sebastian Bubmann, Yusca Balogh, Momo Hosny, Emad Mahmoud, Haiko Milke, Sünne Elbel, Lennart van Schuilenburg, Mario Rodwald & Instructors: Viktor und Olli.

General
Complete name : H:MoviesKiteBoarding VideosAwesome_-_The_Kite-Village_Movie_1280x720.mp4
Format : MPEG-4
Format profile : Base Media
Codec ID : isom
File size : 179 MiB
Duration : 11mn 35s
Overall bit rate : 2 152 Kbps
Encoded date : UTC 2010-01-21 13:27:12
Tagged date : UTC 2010-01-22 13:27:22
Video
ID : 1
Format : AVC
Format/Info : Advanced Video Codec
Format profile : High@L3.1
Format settings, CABAC : Yes
Format settings, ReFrames : 4 frames
Codec ID : avc1
Codec ID/Info : Advanced Video Coding
Duration : 11mn 35s
Bit rate mode : Variable
Bit rate : 2 000 Kbps
Maximum bit rate : 8 930 Kbps
Width : 1 280 pixels
Height : 720 pixels
Display aspect ratio : 16:9
Frame rate mode : Constant
Frame rate : 25.000 fps
Color space : YUV
Chroma subsampling : 4:2:0
Bit depth : 8 bits
Scan type : Progressive
Bits/(Pixel*Frame) : 0.087
Stream size : 165 MiB (93%)
Writing library : x264 core 72 r1217 5e9ae4c
Encoding settings : cabac=1 / ref=4 / deblock=1:0:0 / analyse=0x3:0x113 / me=hex / subme=7 / psy=1 / psy_rd=1.0:0.0 / mixed_ref=1 / me_range=16 / chroma_me=1 / trellis=1 / 8x8dct=1 / cqm=0 / deadzone=21,11 / chroma_qp_offset=-2 / threads=8 / nr=0 / decimate=1 / mbaff=0 / bframes=4 / b_pyramid=0 / b_adapt=1 / b_bias=0 / direct=3 / wpredb=1 / keyint=75 / keyint_min=25 / scenecut=40 / rc_lookahead=40 / rc=2pass / mbtree=1 / bitrate=2000 / ratetol=1.0 / qcomp=0.60 / qpmin=10 / qpmax=51 / qpstep=4 / cplxblur=20.0 / qblur=0.5 / vbv_maxrate=3000 / vbv_bufsize=10000 / ip_ratio=1.40 / aq=1:1.00
Encoded date : UTC 2010-01-21 13:27:12
Tagged date : UTC 2010-01-21 13:27:21
Audio
ID : 2
Format : AAC
Format/Info : Advanced Audio Codec
Format version : Version 4
Format profile : LC
Format settings, SBR : No
Codec ID : 40
Duration : 11mn 35s
Bit rate mode : Variable
Bit rate : 158 Kbps
Maximum bit rate : 248 Kbps
Channel(s) : 2 channels
Channel positions : Front: L R
Sampling rate : 44.1 KHz
Stream size : 13.1 MiB (7%)
Encoded date : UTC 2010-01-21 13:27:14
Tagged date : UTC 2010-01-21 13:27:21


Enjoy and don't forgedt to Comment and Seed ...!